<?xml version="1.0" ?><!DOCTYPE svg  PUBLIC '-//W3C//DTD SVG 1.1//EN'  'http://www.w3.org/Graphics/SVG/1.1/DTD/svg11.dtd'><svg height="8.4666mm" style="shape-rendering:geometricPrecision; text-rendering:geometricPrecision; image-rendering:optimizeQuality; fill-rule:evenodd; clip-rule:evenodd" version="1.1" viewBox="0 0 846.66 846.66" width="8.4666mm" xml:space="preserve" xmlns="http://www.w3.org/2000/svg" xmlns:xlink="http://www.w3.org/1999/xlink"><defs><style type="text/css">
   <![CDATA[
    .fil0 {fill:black;fill-rule:nonzero}
   ]]>
  </style></defs><g id="Layer_x0020_1"><path class="fil0" d="M314.38 89.5l217.9 0 0 -58.55c0,-11.4 9.24,-20.65 20.64,-20.65l77.4 0c11.4,0 20.64,9.25 20.64,20.65l0 58.55 54.95 0c11.4,0 20.65,9.25 20.65,20.65l0 705.56c0,11.4 -9.25,20.64 -20.65,20.64l-565.16 0c-11.4,0 -20.65,-9.24 -20.65,-20.64l0 -705.56c0,-11.4 9.25,-20.65 20.65,-20.65l54.95 0 0 -58.55c0,-11.4 9.24,-20.65 20.64,-20.65l77.4 0c11.4,0 20.64,9.25 20.64,20.65l0 58.55zm217.9 41.3l-217.9 0 0 40.54c0,11.4 -9.24,20.65 -20.64,20.65l-77.4 0c-11.4,0 -20.64,-9.25 -20.64,-20.65l0 -40.54 -34.31 0 0 363.67 523.88 0 0 -363.67 -34.31 0 0 40.54c0,11.4 -9.24,20.65 -20.64,20.65l-77.4 0c-11.4,0 -20.64,-9.25 -20.64,-20.65l0 -40.54zm77.39 -79.2l-36.1 0 0 99.1 36.1 0 0 -99.1zm-336.58 0l-36.1 0 0 99.1 36.1 0 0 -99.1zm-55.84 658.76c-27.16,0 -27.16,-41.3 0,-41.3l412.16 0c27.16,0 27.16,41.3 0,41.3l-412.16 0zm0 -87.3c-27.16,0 -27.16,-41.29 0,-41.29l412.16 0c27.16,0 27.16,41.29 0,41.29l-412.16 0zm468.02 -87.29l-523.88 0 0 259.29 523.88 0 0 -259.29zm-261.94 -374.27c58.62,0 106.14,47.52 106.14,106.14 0,11.32 -1.77,22.22 -5.05,32.45l8.7 0c11.4,0 20.65,9.25 20.65,20.65l0 131.39c0,11.4 -9.25,20.65 -20.65,20.65l-219.58 0c-11.4,0 -20.65,-9.25 -20.65,-20.65l0 -131.39c0,-11.4 9.25,-20.65 20.65,-20.65l8.7 0c-3.28,-10.23 -5.05,-21.13 -5.05,-32.45 0,-58.62 47.52,-106.14 106.14,-106.14zm76.34 179.88c-20.43,20.8 -47.09,32.4 -76.34,32.4 -29.25,0 -55.91,-11.6 -76.34,-32.4l-12.81 0 0 90.1 178.3 0 0 -90.1 -12.81 0zm-76.34 -138.59c-35.82,0 -64.85,29.03 -64.85,64.85 0,35.66 28.88,64.85 64.85,64.85 35.98,0 64.85,-29.19 64.85,-64.85 0,-35.82 -29.03,-64.85 -64.85,-64.85z"/></g></svg>